<?xml version="1.0" encoding="utf-8"?>
<!-- Generated by Mocodo 4.2.10 -->
<svg width="1072" height="525" viewBox="0 0 1072 525" xmlns="http://www.w3.org/2000/svg">
<rect x="0" y="0" width="1072" height="525" fill="#f7f7f7" stroke="none" stroke-width="0"/>

<!-- Association APARTIEN -->
<g>
	<line x1="611" y1="68" x2="750" y2="68" stroke="#4393c3" stroke-width="2"/>
	<line x1="750" y1="203" x2="750" y2="68" stroke="#4393c3" stroke-width="2"/>
	<g>
		<path d="M769 43 a14 14 90 0 1 14 14 V68 h-66 V57 a14 14 90 0 1 14 -14" fill="#92c5de" stroke="#92c5de" stroke-width="0"/>
		<path d="M783 68 v11 a14 14 90 0 1 -14 14 H731 a14 14 90 0 1 -14 -14 V68 H66" fill="#d1e5f0" stroke="#d1e5f0" stroke-width="0"/>
		<rect x="717" y="43" width="66" height="50" fill="none" rx="14" stroke="#4393c3" stroke-width="2"/>
		<line x1="717" y1="68" x2="783" y2="68" stroke="#4393c3" stroke-width="1"/>
		<text x="725" y="60.75" fill="#000000" font-family="Verdana" font-size="12">apartien</text>
	</g>
	<text x="673" y="85" fill="#b2182b" font-family="Verdana" font-size="12">1,1</text>
	<text x="755" y="144" fill="#b2182b" font-family="Verdana" font-size="12">0,N</text>
</g>

<!-- Association PRESCRITS -->
<g>
	<line x1="405" y1="203" x2="611" y2="203" stroke="#4393c3" stroke-width="2"/>
	<line x1="750" y1="203" x2="611" y2="203" stroke="#4393c3" stroke-width="2"/>
	<g>
		<path d="M631 178 a14 14 90 0 1 14 14 V203 h-68 V192 a14 14 90 0 1 14 -14" fill="#92c5de" stroke="#92c5de" stroke-width="0"/>
		<path d="M645 203 v11 a14 14 90 0 1 -14 14 H591 a14 14 90 0 1 -14 -14 V203 H68" fill="#d1e5f0" stroke="#d1e5f0" stroke-width="0"/>
		<rect x="577" y="178" width="68" height="50" fill="none" rx="14" stroke="#4393c3" stroke-width="2"/>
		<line x1="577" y1="203" x2="645" y2="203" stroke="#4393c3" stroke-width="1"/>
		<text x="585" y="195.75" fill="#000000" font-family="Verdana" font-size="12">prescrits</text>
	</g>
	<text x="506" y="220" fill="#b2182b" font-family="Verdana" font-size="12">0,N</text>
	<text x="667" y="195" fill="#b2182b" font-family="Verdana" font-size="12">0,N</text>
</g>

<!-- Association OCCUPE -->
<g>
	<line x1="999" y1="203" x2="872" y2="203" stroke="#4393c3" stroke-width="2"/>
	<line x1="750" y1="203" x2="872" y2="203" stroke="#4393c3" stroke-width="2"/>
	<g>
		<path d="M887 178 a14 14 90 0 1 14 14 V203 h-58 V192 a14 14 90 0 1 14 -14" fill="#92c5de" stroke="#92c5de" stroke-width="0"/>
		<path d="M901 203 v11 a14 14 90 0 1 -14 14 H857 a14 14 90 0 1 -14 -14 V203 H58" fill="#d1e5f0" stroke="#d1e5f0" stroke-width="0"/>
		<rect x="843" y="178" width="58" height="50" fill="none" rx="14" stroke="#4393c3" stroke-width="2"/>
		<line x1="843" y1="203" x2="901" y2="203" stroke="#4393c3" stroke-width="1"/>
		<text x="851" y="195.75" fill="#000000" font-family="Verdana" font-size="12">occupe</text>
	</g>
	<text x="909" y="220" fill="#b2182b" font-family="Verdana" font-size="12">1,1</text>
	<text x="811" y="220" fill="#b2182b" font-family="Verdana" font-size="12">0,N</text>
</g>

<!-- Association A -->
<g>
	<line x1="102" y1="347" x2="240" y2="347" stroke="#4393c3" stroke-width="2"/>
	<line x1="405" y1="347" x2="240" y2="347" stroke="#4393c3" stroke-width="2"/>
	<g>
		<path d="M237 322 a14 14 90 0 1 14 14 V347 h-22 V336 a14 14 90 0 1 14 -14" fill="#92c5de" stroke="#92c5de" stroke-width="0"/>
		<path d="M251 347 v11 a14 14 90 0 1 -14 14 H243 a14 14 90 0 1 -14 -14 V347 H22" fill="#d1e5f0" stroke="#d1e5f0" stroke-width="0"/>
		<rect x="229" y="322" width="22" height="50" fill="none" rx="14" stroke="#4393c3" stroke-width="2"/>
		<line x1="229" y1="347" x2="251" y2="347" stroke="#4393c3" stroke-width="1"/>
		<text x="236" y="339.75" fill="#000000" font-family="Verdana" font-size="12">a</text>
	</g>
	<text x="200" y="364" fill="#b2182b" font-family="Verdana" font-size="12">1,1</text>
	<text x="293" y="364" fill="#b2182b" font-family="Verdana" font-size="12">0,N</text>
</g>

<!-- Association RESPONSABILITE_SUR_ANIMAL -->
<g>
	<line x1="405" y1="347" x2="611" y2="347" stroke="#4393c3" stroke-width="2"/>
	<line x1="750" y1="203" x2="611" y2="347" stroke="#4393c3" stroke-width="2"/>
	<g>
		<path d="M684 322 a14 14 90 0 1 14 14 V347 h-174 V336 a14 14 90 0 1 14 -14" fill="#92c5de" stroke="#92c5de" stroke-width="0"/>
		<path d="M698 347 v11 a14 14 90 0 1 -14 14 H538 a14 14 90 0 1 -14 -14 V347 H174" fill="#d1e5f0" stroke="#d1e5f0" stroke-width="0"/>
		<rect x="524" y="322" width="174" height="50" fill="none" rx="14" stroke="#4393c3" stroke-width="2"/>
		<line x1="524" y1="347" x2="698" y2="347" stroke="#4393c3" stroke-width="1"/>
		<text x="532" y="339.75" fill="#000000" font-family="Verdana" font-size="12">responsabilite_sur_animal</text>
	</g>
	<text x="495" y="364" fill="#b2182b" font-family="Verdana" font-size="12">1,1</text>
	<text x="698.88" y="271" fill="#b2182b" font-family="Verdana" font-size="12">1,N</text>
</g>

<!-- Association ONT -->
<g>
	<line x1="750" y1="474" x2="750" y2="347" stroke="#4393c3" stroke-width="2"/>
	<line x1="750" y1="203" x2="750" y2="347" stroke="#4393c3" stroke-width="2"/>
	<g>
		<path d="M754 322 a14 14 90 0 1 14 14 V347 h-36 V336 a14 14 90 0 1 14 -14" fill="#92c5de" stroke="#92c5de" stroke-width="0"/>
		<path d="M768 347 v11 a14 14 90 0 1 -14 14 H746 a14 14 90 0 1 -14 -14 V347 H36" fill="#d1e5f0" stroke="#d1e5f0" stroke-width="0"/>
		<rect x="732" y="322" width="36" height="50" fill="none" rx="14" stroke="#4393c3" stroke-width="2"/>
		<line x1="732" y1="347" x2="768" y2="347" stroke="#4393c3" stroke-width="1"/>
		<text x="740" y="339.75" fill="#000000" font-family="Verdana" font-size="12">ont</text>
	</g>
	<text x="755" y="424" fill="#b2182b" font-family="Verdana" font-size="12">1,1</text>
	<text x="755" y="271" fill="#b2182b" font-family="Verdana" font-size="12">0,N</text>
</g>

<!-- Association PRESCRIT -->
<g>
	<line x1="240" y1="474" x2="405" y2="474" stroke="#4393c3" stroke-width="2"/>
	<line x1="405" y1="347" x2="405" y2="474" stroke="#4393c3" stroke-width="2"/>
	<g>
		<path d="M421 449 a14 14 90 0 1 14 14 V474 h-60 V463 a14 14 90 0 1 14 -14" fill="#92c5de" stroke="#92c5de" stroke-width="0"/>
		<path d="M435 474 v11 a14 14 90 0 1 -14 14 H389 a14 14 90 0 1 -14 -14 V474 H60" fill="#d1e5f0" stroke="#d1e5f0" stroke-width="0"/>
		<rect x="375" y="449" width="60" height="50" fill="none" rx="14" stroke="#4393c3" stroke-width="2"/>
		<line x1="375" y1="474" x2="435" y2="474" stroke="#4393c3" stroke-width="1"/>
		<text x="382" y="466.75" fill="#000000" font-family="Verdana" font-size="12">prescrit</text>
	</g>
	<text x="346" y="491" fill="#b2182b" font-family="Verdana" font-size="12">0,N</text>
	<text x="410" y="432" fill="#b2182b" font-family="Verdana" font-size="12">O,N</text>
</g>

<!-- Entity ESPECE_PROPRE -->
<g>
	<g>
		<rect x="554" y="9" width="114" height="25" fill="#f4a582" stroke="none" stroke-width="0" opacity="1"/>
		<rect x="554" y="34" width="114" height="93" fill="#fddbc7" stroke="none" stroke-width="0" opacity="1"/>
		<rect x="554" y="9" width="114" height="118" fill="none" stroke="#d6604d" stroke-width="2" opacity="1"/>
		<line x1="554" y1="34" x2="668" y2="34" stroke="#d6604d" stroke-width="1"/>
	</g>
	<text x="560" y="26.75" fill="#000000" font-family="Verdana" font-size="12">ESPECE_PROPRE</text>
	<text x="559" y="51.8" fill="#000000" font-family="Verdana" font-size="12">nom_commun</text>
	<line x1="559" y1="54" x2="646" y2="54" stroke="#000000" stroke-width="1"/>
	<text x="559" y="68.8" fill="#000000" font-family="Verdana" font-size="12">nom_scientifique</text>
	<text x="559" y="85.8" fill="#000000" font-family="Verdana" font-size="12">origine</text>
	<text x="559" y="102.8" fill="#000000" font-family="Verdana" font-size="12">description</text>
	<text x="559" y="119.8" fill="#000000" font-family="Verdana" font-size="12">eclos_habitat</text>
</g>

<!-- Entity TRAITEMENT_MEDIC_ANIMAL -->
<g>
	<g>
		<rect x="309" y="152" width="192" height="25" fill="#f4a582" stroke="none" stroke-width="0" opacity="1"/>
		<rect x="309" y="177" width="192" height="77" fill="#fddbc7" stroke="none" stroke-width="0" opacity="1"/>
		<rect x="309" y="152" width="192" height="102" fill="none" stroke="#d6604d" stroke-width="2" opacity="1"/>
		<line x1="309" y1="177" x2="501" y2="177" stroke="#d6604d" stroke-width="1"/>
	</g>
	<text x="314" y="169.75" fill="#000000" font-family="Verdana" font-size="12">TRAITEMENT_MEDIC_ANIMAL</text>
	<text x="314" y="194.8" fill="#000000" font-family="Verdana" font-size="12">medicament</text>
	<line x1="314" y1="197" x2="389" y2="197" stroke="#000000" stroke-width="1"/>
	<text x="314" y="211.8" fill="#000000" font-family="Verdana" font-size="12">description</text>
	<text x="314" y="228.8" fill="#000000" font-family="Verdana" font-size="12">posologie</text>
	<text x="314" y="245.8" fill="#000000" font-family="Verdana" font-size="12">duree</text>
</g>

<!-- Entity ANIMAUX -->
<g>
	<g>
		<rect x="694" y="152" width="112" height="25" fill="#f4a582" stroke="none" stroke-width="0" opacity="1"/>
		<rect x="694" y="177" width="112" height="77" fill="#fddbc7" stroke="none" stroke-width="0" opacity="1"/>
		<rect x="694" y="152" width="112" height="102" fill="none" stroke="#d6604d" stroke-width="2" opacity="1"/>
		<line x1="694" y1="177" x2="806" y2="177" stroke="#d6604d" stroke-width="1"/>
	</g>
	<text x="721" y="169.75" fill="#000000" font-family="Verdana" font-size="12">ANIMAUX</text>
	<text x="699" y="194.8" fill="#000000" font-family="Verdana" font-size="12">nom_propre</text>
	<line x1="699" y1="197" x2="774" y2="197" stroke="#000000" stroke-width="1"/>
	<text x="699" y="211.8" fill="#000000" font-family="Verdana" font-size="12">tatuage</text>
	<text x="699" y="228.8" fill="#000000" font-family="Verdana" font-size="12">signe_particulier</text>
</g>

<!-- Entity ENCLOS -->
<g>
	<g>
		<rect x="935" y="144" width="128" height="25" fill="#f4a582" stroke="none" stroke-width="0" opacity="1"/>
		<rect x="935" y="169" width="128" height="93" fill="#fddbc7" stroke="none" stroke-width="0" opacity="1"/>
		<rect x="935" y="144" width="128" height="118" fill="none" stroke="#d6604d" stroke-width="2" opacity="1"/>
		<line x1="935" y1="169" x2="1063" y2="169" stroke="#d6604d" stroke-width="1"/>
	</g>
	<text x="974" y="161.75" fill="#000000" font-family="Verdana" font-size="12">ENCLOS</text>
	<text x="940" y="186.8" fill="#000000" font-family="Verdana" font-size="12">emplacement</text>
	<line x1="940" y1="189" x2="1022" y2="189" stroke="#000000" stroke-width="1"/>
	<text x="940" y="203.8" fill="#000000" font-family="Verdana" font-size="12">numero</text>
	<text x="940" y="220.8" fill="#000000" font-family="Verdana" font-size="12">description</text>
	<text x="940" y="237.8" fill="#000000" font-family="Verdana" font-size="12">superficie</text>
	<text x="940" y="254.8" fill="#000000" font-family="Verdana" font-size="12">occupe_par_animal</text>
</g>

<!-- Entity REGIME_ALIMENT_EMPLOYE -->
<g>
	<g>
		<rect x="9" y="305" width="186" height="25" fill="#f4a582" stroke="none" stroke-width="0" opacity="1"/>
		<rect x="9" y="330" width="186" height="59" fill="#fddbc7" stroke="none" stroke-width="0" opacity="1"/>
		<rect x="9" y="305" width="186" height="84" fill="none" stroke="#d6604d" stroke-width="2" opacity="1"/>
		<line x1="9" y1="330" x2="195" y2="330" stroke="#d6604d" stroke-width="1"/>
	</g>
	<text x="15" y="322.75" fill="#000000" font-family="Verdana" font-size="12">REGIME_ALIMENT_EMPLOYE</text>
	<text x="14" y="347.8" fill="#000000" font-family="Verdana" font-size="12">composition</text>
	<line x1="14" y1="350" x2="87" y2="350" stroke="#000000" stroke-width="1"/>
	<text x="14" y="364.8" fill="#000000" font-family="Verdana" font-size="12">type</text>
	<text x="14" y="381.8" fill="#000000" font-family="Verdana" font-size="12">allergenes</text>
</g>

<!-- Entity EMPLOYE -->
<g>
	<g>
		<rect x="320" y="279" width="170" height="25" fill="#f4a582" stroke="none" stroke-width="0" opacity="1"/>
		<rect x="320" y="304" width="170" height="111" fill="#fddbc7" stroke="none" stroke-width="0" opacity="1"/>
		<rect x="320" y="279" width="170" height="136" fill="none" stroke="#d6604d" stroke-width="2" opacity="1"/>
		<line x1="320" y1="304" x2="490" y2="304" stroke="#d6604d" stroke-width="1"/>
	</g>
	<text x="377" y="296.75" fill="#000000" font-family="Verdana" font-size="12">EMPLOYE</text>
	<text x="325" y="321.8" fill="#000000" font-family="Verdana" font-size="12">nom</text>
	<line x1="325" y1="324" x2="353" y2="324" stroke="#000000" stroke-width="1"/>
	<text x="325" y="338.8" fill="#000000" font-family="Verdana" font-size="12">prenom</text>
	<text x="325" y="355.8" fill="#000000" font-family="Verdana" font-size="12">adresse</text>
	<text x="325" y="372.8" fill="#000000" font-family="Verdana" font-size="12">telephone</text>
	<text x="325" y="389.8" fill="#000000" font-family="Verdana" font-size="12">poste_occupe</text>
	<text x="325" y="406.8" fill="#000000" font-family="Verdana" font-size="12">responsabilite_sur_animal</text>
</g>

<!-- Entity TRAITEMENT_MEDIC_EMPLOYE -->
<g>
	<g>
		<rect x="139" y="440" width="202" height="25" fill="#f4a582" stroke="none" stroke-width="0" opacity="1"/>
		<rect x="139" y="465" width="202" height="43" fill="#fddbc7" stroke="none" stroke-width="0" opacity="1"/>
		<rect x="139" y="440" width="202" height="68" fill="none" stroke="#d6604d" stroke-width="2" opacity="1"/>
		<line x1="139" y1="465" x2="341" y2="465" stroke="#d6604d" stroke-width="1"/>
	</g>
	<text x="145" y="457.75" fill="#000000" font-family="Verdana" font-size="12">TRAITEMENT_MEDIC_EMPLOYE</text>
	<text x="144" y="482.8" fill="#000000" font-family="Verdana" font-size="12">medicament</text>
	<line x1="144" y1="485" x2="219" y2="485" stroke="#000000" stroke-width="1"/>
	<text x="144" y="499.8" fill="#000000" font-family="Verdana" font-size="12">description</text>
</g>

<!-- Entity REGIME_ALIMENT_ANIMAL -->
<g>
	<g>
		<rect x="662" y="432" width="176" height="25" fill="#f4a582" stroke="none" stroke-width="0" opacity="1"/>
		<rect x="662" y="457" width="176" height="59" fill="#fddbc7" stroke="none" stroke-width="0" opacity="1"/>
		<rect x="662" y="432" width="176" height="84" fill="none" stroke="#d6604d" stroke-width="2" opacity="1"/>
		<line x1="662" y1="457" x2="838" y2="457" stroke="#d6604d" stroke-width="1"/>
	</g>
	<text x="667" y="449.75" fill="#000000" font-family="Verdana" font-size="12">REGIME_ALIMENT_ANIMAL</text>
	<text x="667" y="474.8" fill="#000000" font-family="Verdana" font-size="12">quantite</text>
	<line x1="667" y1="477" x2="718" y2="477" stroke="#000000" stroke-width="1"/>
	<text x="667" y="491.8" fill="#000000" font-family="Verdana" font-size="12">regime</text>
	<text x="667" y="508.8" fill="#000000" font-family="Verdana" font-size="12">nom_propre</text>
</g>
</svg>